<?xml version="1.0" standalone="no"?>
<!DOCTYPE svg PUBLIC "-//W3C//DTD SVG 20010904//EN"
 "http://www.w3.org/TR/2001/REC-SVG-20010904/DTD/svg10.dtd">
<svg version="1.0" xmlns="http://www.w3.org/2000/svg"
 width="260.000000pt" height="260.000000pt" viewBox="0 0 260.000000 260.000000"
 preserveAspectRatio="xMidYMid meet">
<metadata>
Created by potrace 1.11, written by Peter Selinger 2001-2013
</metadata>
<g transform="translate(0.000000,260.000000) scale(0.100000,-0.100000)"
fill="#000000" stroke="none">
<path d="M1165 2593 c-294 -37 -548 -155 -755 -350 -71 -67 -189 -213 -229
-283 -176 -310 -221 -641 -137 -995 35 -147 134 -343 241 -475 207 -256 489
-421 810 -474 88 -15 355 -16 415 -2 14 4 37 8 51 11 67 12 206 58 282 94 356
164 619 478 716 857 30 114 32 133 36 304 2 133 -1 172 -21 273 -52 256 -164
467 -346 655 -66 68 -163 149 -208 172 -14 7 -27 16 -30 21 -3 4 -50 30 -105
57 -110 55 -253 103 -360 122 -69 12 -302 21 -360 13z"/>
</g>
</svg>
